<svg width="24" height="22" viewBox="0 0 24 22" fill="none" xmlns="http://www.w3.org/2000/svg">
<path d="M23.7913 4.38533C23.6045 4.1461 23.3179 4.00627 23.0143 4.00627H4.24893L3.96999 0.898779C3.92437 0.390602 3.49847 0.0012207 2.98828 0.0012207H0.985657C0.441293 0.0012207 0 0.442514 0 0.986878C0 1.53124 0.441293 1.97254 0.985657 1.97254H2.08715L3.16753 14.0088C3.16776 14.0229 3.16706 14.0369 3.16785 14.0512C3.17006 14.089 3.17499 14.126 3.18128 14.1624L3.2208 14.6025C3.22155 14.6108 3.22239 14.6191 3.22338 14.6273C3.34316 15.6651 3.87349 16.5642 4.64038 17.1717C4.24302 17.6792 4.00524 18.3173 4.00524 19.0103C4.00524 20.658 5.34578 21.9986 6.99347 21.9986C8.64121 21.9986 9.98175 20.658 9.98175 19.0103C9.98175 18.6533 9.91862 18.3109 9.80334 17.9933H15.198C15.0827 18.3109 15.0196 18.6533 15.0196 19.0103C15.0196 20.658 16.3601 21.9986 18.0079 21.9986C19.6556 21.9986 20.9961 20.658 20.9961 19.0103C20.9961 17.3625 19.6556 16.022 18.0079 16.022H7.00014C6.25141 16.022 5.59895 15.5703 5.31734 14.9121L21.0695 13.9864C21.4995 13.9611 21.8633 13.6594 21.9679 13.2415L23.9706 5.23093C24.0442 4.93655 23.978 4.62461 23.7913 4.38533Z" fill="black"/>
</svg>
